# This file uses centimeters as units for non-parametric coordinates.

mtllib TyreBackLeft.mtl
g default
v 6.403220 -2.733808 1.961006
v 7.588988 -2.733808 1.469845
v 8.774756 -2.733808 1.961006
v 9.265918 -2.733808 3.146775
v 8.774756 -2.733808 4.332543
v 7.588988 -2.733808 4.823704
v 6.403220 -2.733808 4.332543
v 5.912058 -2.733808 3.146775
v 6.403220 -4.206604 1.961006
v 7.588988 -4.206604 1.469845
v 8.774756 -4.206604 1.961006
v 9.265918 -4.206604 3.146775
v 8.774756 -4.206604 4.332543
v 7.588988 -4.206604 4.823704
v 6.403220 -4.206604 4.332543
v 5.912058 -4.206604 3.146775
v 7.588988 -2.733808 3.146775
v 7.588988 -4.206604 3.146775
vt 0.905935 0.942977
vt 0.863651 0.942977
vt 0.863651 0.896438
vt 0.905935 0.896437
vt 0.821366 0.942977
vt 0.821366 0.896438
vt 0.779081 0.942976
vt 0.779082 0.896436
vt 0.736797 0.942975
vt 0.736798 0.896435
vt 0.694513 0.942975
vt 0.694513 0.896435
vt 0.652228 0.942975
vt 0.652228 0.896435
vt 0.990504 0.942977
vt 0.948220 0.942977
vt 0.948219 0.896437
vt 0.990504 0.896437
vt 0.501757 0.820000
vt 0.501757 0.875000
vt 0.441757 0.820000
vt 0.501757 0.765000
vt 0.441757 0.765000
vt 0.381757 0.765000
vt 0.381757 0.820000
vt 0.381757 0.875000
vt 0.441757 0.875000
vt 0.247511 0.875000
vt 0.247511 0.820000
vt 0.307511 0.820000
vt 0.247511 0.765000
vt 0.307511 0.765000
vt 0.367511 0.765000
vt 0.367511 0.820000
vt 0.367511 0.875000
vt 0.307511 0.875000
vn -0.382683 0.000000 -0.923880
vn -0.382683 0.000000 -0.923880
vn -0.382683 0.000000 -0.923880
vn -0.382683 0.000000 -0.923880
vn 0.382683 0.000000 -0.923880
vn 0.382683 0.000000 -0.923880
vn 0.382683 0.000000 -0.923880
vn 0.382683 0.000000 -0.923880
vn 0.923880 0.000000 -0.382683
vn 0.923880 0.000000 -0.382683
vn 0.923880 0.000000 -0.382683
vn 0.923880 0.000000 -0.382683
vn 0.923880 0.000000 0.382683
vn 0.923880 0.000000 0.382683
vn 0.923880 0.000000 0.382683
vn 0.923880 0.000000 0.382683
vn 0.382684 0.000000 0.923879
vn 0.382684 0.000000 0.923879
vn 0.382684 0.000000 0.923879
vn 0.382684 0.000000 0.923879
vn -0.382683 0.000000 0.923880
vn -0.382683 0.000000 0.923880
vn -0.382683 0.000000 0.923880
vn -0.382683 0.000000 0.923880
vn -0.923880 0.000000 0.382683
vn -0.923880 0.000000 0.382683
vn -0.923880 0.000000 0.382683
vn -0.923880 0.000000 0.382683
vn -0.923879 0.000000 -0.382684
vn -0.923879 0.000000 -0.382684
vn -0.923879 0.000000 -0.382684
vn -0.923879 0.000000 -0.382684
vn 0.000000 1.000000 0.000000
vn 0.000000 1.000000 0.000000
vn 0.000000 1.000000 -0.000000
vn 0.000000 1.000000 -0.000000
vn 0.000000 1.000000 -0.000000
vn 0.000000 1.000000 0.000000
vn 0.000000 1.000000 0.000000
vn 0.000000 1.000000 0.000000
vn 0.000000 1.000000 0.000000
vn 0.000000 -1.000000 0.000000
vn 0.000000 -1.000000 0.000000
vn 0.000000 -1.000000 0.000000
vn 0.000000 -1.000000 -0.000000
vn 0.000000 -1.000000 0.000000
vn 0.000000 -1.000000 0.000000
vn 0.000000 -1.000000 0.000000
vn 0.000000 -1.000000 0.000000
vn 0.000000 -1.000000 0.000000
s off
g polySurface18 polySurface17
usemtl surfaceShader1SG
f 1/1/1 2/2/2 10/3/3 9/4/4
f 2/2/5 3/5/6 11/6/7 10/3/8
f 3/5/9 4/7/10 12/8/11 11/6/12
f 4/7/13 5/9/14 13/10/15 12/8/16
f 5/9/17 6/11/18 14/12/19 13/10/20
f 6/11/21 7/13/22 15/14/23 14/12/24
f 7/15/25 8/16/26 16/17/27 15/18/28
f 8/16/29 1/1/30 9/4/31 16/17/32
s 1
f 2/19/33 1/20/34 17/21/35
f 3/22/36 2/19/33 17/21/35
f 4/23/37 3/22/36 17/21/35
f 5/24/38 4/23/37 17/21/35
f 6/25/39 5/24/38 17/21/35
f 7/26/40 6/25/39 17/21/35
f 8/27/41 7/26/40 17/21/35
f 1/20/34 8/27/41 17/21/35
s 2
f 9/28/42 10/29/43 18/30/44
f 10/29/43 11/31/45 18/30/44
f 11/31/45 12/32/46 18/30/44
f 12/32/46 13/33/47 18/30/44
f 13/33/47 14/34/48 18/30/44
f 14/34/48 15/35/49 18/30/44
f 15/35/49 16/36/50 18/30/44
f 16/36/50 9/28/42 18/30/44
