# This file uses centimeters as units for non-parametric coordinates.

mtllib Straight Track.mtl
g default
v -15.373702 -19.115761 0.000000
v 17.575196 -19.115761 0.000000
v -15.373702 -19.115761 2.481343
v 17.575196 -19.115761 2.481343
v -15.373702 18.817252 2.481343
v 17.575196 18.817252 2.481343
v -15.373702 18.817252 0.000000
v 17.575196 18.817252 0.000000
v 17.575196 -0.149254 0.000000
v -15.373702 -0.149254 0.000000
v 17.575196 18.817252 1.240672
v -15.373702 18.817252 1.240672
v 17.575196 -0.149254 2.481343
v -15.373702 -0.149254 2.481343
v 17.575196 -19.115761 1.240672
v -15.373702 -19.115761 1.240672
v -15.373702 -19.115761 1.861007
v 17.575196 -19.115761 1.861007
v -15.373702 12.363351 2.481343
v 17.575196 12.363351 2.481343
v -15.373702 18.817252 0.620336
v 17.575196 18.817252 0.620336
v -15.373702 -3.000953 0.000000
v 17.575196 -3.000953 0.000000
v 17.575196 2.702446 0.000000
v -15.373702 2.702446 0.000000
v 17.575196 18.817252 1.861007
v -15.373702 18.817252 1.861007
v 17.575196 -12.661859 2.481343
v -15.373702 -12.661859 2.481343
v 17.575196 -19.115761 0.620336
v -15.373702 -19.115761 0.620336
v -15.373702 -19.115761 7.535048
v 17.575196 -19.115761 7.535048
v 17.575196 -15.134486 7.535048
v -15.373702 -15.134486 7.535048
v 17.575196 14.835979 7.535048
v -15.373702 14.835979 7.535048
v 17.575196 18.817252 7.535048
v -15.373702 18.817252 7.535048
vt 0.375000 0.000000
vt 0.625000 0.000000
vt 0.375000 0.250000
vt 0.625000 0.250000
vt 0.375000 0.500000
vt 0.625000 0.500000
vt 0.375000 0.750000
vt 0.625000 0.750000
vt 0.375000 1.000000
vt 0.625000 1.000000
vt 0.875000 0.000000
vt 0.875000 0.250000
vt 0.125000 0.000000
vt 0.125000 0.250000
vt 0.625000 0.875000
vt 0.750000 0.000000
vt 0.250000 0.000000
vt 0.375000 0.875000
vt 0.625000 0.625000
vt 0.875000 0.125000
vt 0.125000 0.125000
vt 0.375000 0.625000
vt 0.625000 0.375000
vt 0.750000 0.250000
vt 0.250000 0.250000
vt 0.375000 0.375000
vt 0.625000 0.125000
vt 0.375000 0.125000
vt 0.375000 0.187500
vt 0.625000 0.187500
vt 0.187500 0.250000
vt 0.375000 0.437500
vt 0.625000 0.437500
vt 0.812500 0.250000
vt 0.125000 0.062500
vt 0.375000 0.687500
vt 0.625000 0.687500
vt 0.875000 0.062500
vt 0.312500 0.000000
vt 0.375000 0.937500
vt 0.625000 0.937500
vt 0.687500 0.000000
vt 0.625000 0.812500
vt 0.812500 0.000000
vt 0.187500 0.000000
vt 0.375000 0.812500
vt 0.625000 0.562500
vt 0.875000 0.187500
vt 0.125000 0.187500
vt 0.375000 0.562500
vt 0.625000 0.312500
vt 0.687500 0.250000
vt 0.312500 0.250000
vt 0.375000 0.312500
vt 0.625000 0.062500
vt 0.375000 0.062500
vt 0.375000 0.250000
vt 0.625000 0.250000
vt 0.625000 0.312500
vt 0.375000 0.312500
vt 0.375000 0.437500
vt 0.625000 0.437500
vt 0.625000 0.500000
vt 0.375000 0.500000
vn 0.000000 -1.000000 0.000000
vn 0.000000 -1.000000 0.000000
vn 0.000000 -1.000000 0.000000
vn 0.000000 -1.000000 0.000000
vn 0.000000 -1.000000 0.000000
vn 0.000000 -1.000000 0.000000
vn 0.000000 -1.000000 0.000000
vn 0.000000 -1.000000 0.000000
vn 0.000000 -1.000000 0.000000
vn 0.000000 -1.000000 0.000000
vn 0.000000 0.000000 1.000000
vn 0.000000 0.000000 1.000000
vn 0.000000 0.000000 1.000000
vn 0.000000 0.000000 1.000000
vn 0.000000 1.000000 0.000000
vn 0.000000 1.000000 0.000000
vn 0.000000 1.000000 0.000000
vn 0.000000 1.000000 0.000000
vn 0.000000 1.000000 0.000000
vn 0.000000 1.000000 0.000000
vn 0.000000 1.000000 0.000000
vn 0.000000 1.000000 0.000000
vn 0.000000 1.000000 0.000000
vn 0.000000 1.000000 0.000000
vn 0.000000 0.000000 -1.000000
vn 0.000000 0.000000 -1.000000
vn 0.000000 0.000000 -1.000000
vn 0.000000 0.000000 -1.000000
vn 1.000000 0.000000 0.000000
vn 1.000000 0.000000 0.000000
vn 1.000000 0.000000 0.000000
vn 1.000000 0.000000 0.000000
vn 1.000000 0.000000 0.000000
vn 1.000000 0.000000 0.000000
vn 1.000000 0.000000 0.000000
vn 1.000000 0.000000 0.000000
vn 1.000000 0.000000 0.000000
vn 1.000000 0.000000 0.000000
vn 1.000000 0.000000 0.000000
vn 1.000000 0.000000 0.000000
vn 1.000000 0.000000 0.000000
vn 1.000000 0.000000 0.000000
vn 1.000000 0.000000 0.000000
vn 1.000000 0.000000 0.000000
vn -1.000000 0.000000 0.000000
vn -1.000000 0.000000 0.000000
vn -1.000000 0.000000 0.000000
vn -1.000000 0.000000 0.000000
vn -1.000000 0.000000 0.000000
vn -1.000000 0.000000 0.000000
vn -1.000000 0.000000 0.000000
vn -1.000000 0.000000 0.000000
vn -1.000000 0.000000 0.000000
vn -1.000000 0.000000 0.000000
vn -1.000000 0.000000 0.000000
vn -1.000000 0.000000 0.000000
vn -1.000000 0.000000 0.000000
vn -1.000000 0.000000 0.000000
vn -1.000000 0.000000 0.000000
vn -1.000000 0.000000 0.000000
vn 0.000000 0.000000 -1.000000
vn 0.000000 0.000000 -1.000000
vn 0.000000 0.000000 -1.000000
vn 0.000000 0.000000 -1.000000
vn 0.000000 0.000000 1.000000
vn 0.000000 0.000000 1.000000
vn 0.000000 0.000000 1.000000
vn 0.000000 0.000000 1.000000
vn 0.000000 0.000000 1.000000
vn 0.000000 0.000000 1.000000
vn 0.000000 0.000000 1.000000
vn 0.000000 0.000000 1.000000
vn 0.000000 0.000000 -1.000000
vn 0.000000 0.000000 -1.000000
vn 0.000000 -0.000000 1.000000
vn 0.000000 -0.000000 1.000000
vn 0.000000 -1.000000 0.000000
vn 0.000000 -1.000000 0.000000
vn 1.000000 0.000000 0.000000
vn 1.000000 0.000000 0.000000
vn 0.000000 0.898249 0.439487
vn 0.000000 0.898249 0.439487
vn 0.000000 0.898249 0.439487
vn 0.000000 0.898249 0.439487
vn -1.000000 0.000000 0.000000
vn -1.000000 0.000000 0.000000
vn 0.000000 -0.898249 0.439487
vn 0.000000 -0.898249 0.439487
vn 0.000000 -0.898249 0.439487
vn 0.000000 -0.898249 0.439487
vn 1.000000 0.000000 0.000000
vn 1.000000 0.000000 0.000000
vn 0.000000 1.000000 0.000000
vn 0.000000 1.000000 0.000000
vn -1.000000 0.000000 0.000000
vn -1.000000 0.000000 0.000000
s 1
g initialShadingGroup pCube1
f 32/56/1 1/1/2 2/2/3 31/55/4 15/27/5 18/30/6 4/4/7 3/3/8 17/29/9 16/28/10
s off
f 33/57/11 34/58/12 35/59/13 36/60/14
s 2
f 28/50/15 5/5/16 6/6/17 27/47/18 11/19/19 22/37/20 8/8/21 7/7/22 21/36/23 12/22/24
s 3
f 7/7/25 8/8/26 25/43/27 26/46/28
s 4
f 2/2/29 24/42/30 9/16/31 25/44/32 8/11/33 22/38/34 11/20/35 27/48/36 6/12/37 20/34/38 13/24/39 29/52/40 4/4/41 18/30/42 15/27/43 31/55/44
s 5
f 7/13/45 26/45/46 10/17/47 23/39/48 1/1/49 32/56/50 16/28/51 17/29/52 3/3/53 30/53/54 14/25/55 19/31/56 5/14/57 28/49/58 12/21/59 21/35/60
s 3
f 10/18/61 9/15/62 24/41/63 23/40/64
s 6
f 14/26/65 13/23/66 20/33/67 19/32/68
s off
f 38/61/69 37/62/70 39/63/71 40/64/72
s 3
f 23/40/64 24/41/63 2/10/73 1/9/74
f 26/46/28 25/43/27 9/15/62 10/18/61
s 6
f 30/54/75 29/51/76 13/23/66 14/26/65
s 1
f 3/3/8 4/4/7 34/58/77 33/57/78
s 4
f 4/4/41 29/51/40 35/59/79 34/58/80
s off
f 29/51/81 30/54/82 36/60/83 35/59/84
s 5
f 30/54/54 3/3/53 33/57/85 36/60/86
s off
f 19/32/87 20/33/88 37/62/89 38/61/90
s 4
f 20/33/38 6/6/37 39/63/91 37/62/92
s 2
f 6/6/17 5/5/16 40/64/93 39/63/94
s 5
f 5/5/57 19/32/56 38/61/95 40/64/96
