# This file uses centimeters as units for non-parametric coordinates.

mtllib Flat Track.mtl
g default
v -228.778629 23.293817 0.000000
v 255.848896 23.293817 0.000000
v -228.778629 23.293817 2.335621
v 255.848896 23.293817 2.335621
v -228.778629 95.300477 2.335621
v 255.848896 95.300477 2.335621
v -228.778629 95.300477 0.000000
v 255.848896 95.300477 0.000000
v -228.778629 20.633642 0.000000
v 255.848896 20.633642 0.000000
v 255.848896 20.633642 2.335621
v -228.778629 20.633642 2.335621
v -228.778629 97.960649 2.335621
v 255.848896 97.960649 2.335621
v 255.848896 97.960649 0.000000
v -228.778629 97.960649 0.000000
v -228.778629 23.293817 11.714833
v 255.848896 23.293817 11.714833
v -228.778629 20.633642 11.714833
v 255.848896 20.633642 11.714833
v -228.778629 95.300477 11.714833
v 255.848896 95.300477 11.714833
v 255.848896 97.960649 11.714833
v -228.778629 97.960649 11.714833
v -228.778629 60.746854 2.335621
v 255.848896 60.746854 2.335621
v 255.848896 57.847440 2.335621
v -228.778629 57.847440 2.335621
v 13.535133 57.847440 2.335621
v 13.535133 60.746854 2.335621
v -107.621748 60.746854 2.335621
v -107.621748 57.847440 2.335621
v 134.692015 57.847440 2.335621
v 134.692015 60.746854 2.335621
v 74.113574 60.746854 2.335621
v 74.113574 57.847440 2.335621
v -168.200189 57.847440 2.335621
v -168.200189 60.746854 2.335621
v -47.043307 60.746854 2.335621
v -47.043307 57.847440 2.335621
v 195.270455 57.847440 2.335621
v 195.270455 60.746854 2.335621
v 164.981235 60.746854 2.335621
v 164.981235 57.847440 2.335621
v -77.332528 57.847440 2.335621
v -77.332528 60.746854 2.335621
v -198.489409 60.746854 2.335621
v -198.489409 57.847440 2.335621
v 43.824354 57.847440 2.335621
v 43.824354 60.746854 2.335621
v 104.402794 60.746854 2.335621
v 104.402794 57.847440 2.335621
v -137.910968 57.847440 2.335621
v -137.910968 60.746854 2.335621
v -16.754087 60.746854 2.335621
v -16.754087 57.847440 2.335621
v 225.559676 57.847440 2.335621
v 225.559676 60.746854 2.335621
v 210.415056 60.746854 2.335621
v 210.415056 57.847440 2.335621
v -31.898697 57.847440 2.335621
v -31.898697 60.746854 2.335621
v -153.055588 60.746854 2.335621
v -153.055588 57.847440 2.335621
v 89.258184 57.847440 2.335621
v 89.258184 60.746854 2.335621
v 28.679743 60.746854 2.335621
v 28.679743 57.847440 2.335621
v -213.634029 57.847440 2.335621
v -213.634029 60.746854 2.335621
v -92.477138 60.746854 2.335621
v -92.477138 57.847440 2.335621
v 149.836625 57.847440 2.335621
v 149.836625 60.746854 2.335621
v 180.125855 60.746854 2.335621
v 180.125855 57.847440 2.335621
v -62.187918 57.847440 2.335621
v -62.187918 60.746854 2.335621
v -183.344789 60.746854 2.335621
v -183.344789 57.847440 2.335621
v 58.968964 57.847440 2.335621
v 58.968964 60.746854 2.335621
v 119.547404 60.746854 2.335621
v 119.547404 57.847440 2.335621
v -122.766358 57.847440 2.335621
v -122.766358 60.746854 2.335621
v -1.609477 60.746854 2.335621
v -1.609477 57.847440 2.335621
v 240.704295 57.847440 2.335621
v 240.704295 60.746854 2.335621
vt 0.375000 0.000000
vt 0.625000 0.000000
vt 0.375000 0.250000
vt 0.625000 0.250000
vt 0.375000 0.500000
vt 0.625000 0.500000
vt 0.375000 0.750000
vt 0.625000 0.750000
vt 0.375000 1.000000
vt 0.625000 1.000000
vt 0.875000 0.000000
vt 0.875000 0.250000
vt 0.125000 0.000000
vt 0.125000 0.250000
vt 0.375000 0.000000
vt 0.625000 0.000000
vt 0.625000 0.250000
vt 0.375000 0.250000
vt 0.375000 0.500000
vt 0.625000 0.500000
vt 0.625000 0.750000
vt 0.375000 0.750000
vt 0.625000 0.250000
vt 0.375000 0.250000
vt 0.375000 0.250000
vt 0.625000 0.250000
vt 0.375000 0.500000
vt 0.625000 0.500000
vt 0.625000 0.500000
vt 0.375000 0.500000
vt 0.187500 0.250000
vt 0.375000 0.437500
vt 0.625000 0.437500
vt 0.812500 0.250000
vt 0.625000 0.312500
vt 0.687500 0.250000
vt 0.312500 0.250000
vt 0.375000 0.312500
vt 0.500000 0.312500
vt 0.500000 0.437500
vt 0.437500 0.437500
vt 0.437500 0.312500
vt 0.562500 0.312500
vt 0.562500 0.437500
vt 0.531250 0.437500
vt 0.531250 0.312500
vt 0.406250 0.312500
vt 0.406250 0.437500
vt 0.468750 0.437500
vt 0.468750 0.312500
vt 0.593750 0.312500
vt 0.593750 0.437500
vt 0.578125 0.437500
vt 0.578125 0.312500
vt 0.453125 0.312500
vt 0.453125 0.437500
vt 0.390625 0.437500
vt 0.390625 0.312500
vt 0.515625 0.312500
vt 0.515625 0.437500
vt 0.546875 0.437500
vt 0.546875 0.312500
vt 0.421875 0.312500
vt 0.421875 0.437500
vt 0.484375 0.437500
vt 0.484375 0.312500
vt 0.609375 0.312500
vt 0.609375 0.437500
vt 0.601563 0.437500
vt 0.601563 0.312500
vt 0.476563 0.312500
vt 0.476563 0.437500
vt 0.414063 0.437500
vt 0.414063 0.312500
vt 0.539063 0.312500
vt 0.539063 0.437500
vt 0.507813 0.437500
vt 0.507813 0.312500
vt 0.382813 0.312500
vt 0.382813 0.437500
vt 0.445313 0.437500
vt 0.445313 0.312500
vt 0.570313 0.312500
vt 0.570313 0.437500
vt 0.585938 0.437500
vt 0.585938 0.312500
vt 0.460938 0.312500
vt 0.460938 0.437500
vt 0.398438 0.437500
vt 0.398438 0.312500
vt 0.523438 0.312500
vt 0.523438 0.437500
vt 0.554688 0.437500
vt 0.554688 0.312500
vt 0.429688 0.312500
vt 0.429688 0.437500
vt 0.492188 0.437500
vt 0.492188 0.312500
vt 0.617188 0.312500
vt 0.617188 0.437500
vn 0.000000 -1.000000 0.000000
vn 0.000000 -1.000000 0.000000
vn 0.000000 -1.000000 0.000000
vn 0.000000 -1.000000 0.000000
vn 0.000000 0.000000 1.000000
vn 0.000000 0.000000 1.000000
vn 0.000000 0.000000 1.000000
vn 0.000000 0.000000 1.000000
vn 0.000000 0.000000 1.000000
vn 0.000000 0.000000 1.000000
vn 0.000000 0.000000 1.000000
vn 0.000000 0.000000 1.000000
vn 0.000000 0.000000 1.000000
vn 0.000000 0.000000 1.000000
vn 0.000000 0.000000 1.000000
vn 0.000000 0.000000 1.000000
vn 0.000000 0.000000 1.000000
vn 0.000000 0.000000 1.000000
vn 0.000000 0.000000 1.000000
vn 0.000000 0.000000 1.000000
vn 0.000000 0.000000 1.000000
vn 0.000000 0.000000 1.000000
vn 0.000000 0.000000 1.000000
vn 0.000000 0.000000 1.000000
vn 0.000000 0.000000 1.000000
vn 0.000000 0.000000 1.000000
vn 0.000000 0.000000 1.000000
vn 0.000000 0.000000 1.000000
vn 0.000000 0.000000 1.000000
vn 0.000000 0.000000 1.000000
vn 0.000000 0.000000 1.000000
vn 0.000000 0.000000 1.000000
vn 0.000000 0.000000 1.000000
vn 0.000000 0.000000 1.000000
vn 0.000000 0.000000 1.000000
vn 0.000000 0.000000 1.000000
vn 0.000000 0.000000 1.000000
vn 0.000000 0.000000 1.000000
vn 0.000000 0.000000 1.000000
vn 0.000000 1.000000 0.000000
vn 0.000000 1.000000 0.000000
vn 0.000000 1.000000 0.000000
vn 0.000000 1.000000 0.000000
vn 0.000000 0.000000 -1.000000
vn 0.000000 0.000000 -1.000000
vn 0.000000 0.000000 -1.000000
vn 0.000000 0.000000 -1.000000
vn 1.000000 0.000000 0.000000
vn 1.000000 0.000000 0.000000
vn 1.000000 0.000000 0.000000
vn 1.000000 0.000000 0.000000
vn 1.000000 0.000000 0.000000
vn 1.000000 0.000000 0.000000
vn -1.000000 0.000000 0.000000
vn -1.000000 0.000000 0.000000
vn -1.000000 0.000000 0.000000
vn -1.000000 0.000000 0.000000
vn -1.000000 0.000000 0.000000
vn -1.000000 0.000000 0.000000
vn 0.000000 0.000000 -1.000000
vn 0.000000 0.000000 -1.000000
vn 1.000000 0.000000 0.000000
vn 1.000000 0.000000 0.000000
vn 0.000000 0.000000 1.000000
vn 0.000000 0.000000 1.000000
vn 0.000000 0.000000 1.000000
vn 0.000000 0.000000 1.000000
vn -1.000000 0.000000 0.000000
vn -1.000000 0.000000 0.000000
vn 0.000000 0.000000 1.000000
vn 0.000000 0.000000 1.000000
vn 0.000000 0.000000 1.000000
vn 0.000000 0.000000 1.000000
vn 1.000000 0.000000 0.000000
vn 1.000000 0.000000 0.000000
vn 0.000000 0.000000 -1.000000
vn 0.000000 0.000000 -1.000000
vn -1.000000 0.000000 0.000000
vn -1.000000 0.000000 0.000000
vn 0.000000 1.000000 0.000000
vn 0.000000 1.000000 0.000000
vn 0.000000 1.000000 0.000000
vn 0.000000 1.000000 0.000000
vn -1.000000 0.000000 0.000000
vn -1.000000 0.000000 0.000000
vn 0.000000 -1.000000 0.000000
vn 0.000000 -1.000000 0.000000
vn 1.000000 0.000000 0.000000
vn 1.000000 0.000000 0.000000
vn 0.000000 -1.000000 0.000000
vn 0.000000 -1.000000 0.000000
vn 0.000000 -1.000000 0.000000
vn 0.000000 -1.000000 0.000000
vn 1.000000 0.000000 0.000000
vn 1.000000 0.000000 0.000000
vn 0.000000 1.000000 0.000000
vn 0.000000 1.000000 0.000000
vn -1.000000 0.000000 0.000000
vn -1.000000 0.000000 0.000000
vn 0.000000 0.000000 1.000000
vn 0.000000 0.000000 1.000000
vn 0.000000 0.000000 1.000000
vn 0.000000 0.000000 1.000000
vn 0.000000 0.000000 1.000000
vn 0.000000 0.000000 1.000000
vn 0.000000 0.000000 1.000000
vn 0.000000 0.000000 1.000000
vn 0.000000 0.000000 1.000000
vn 0.000000 0.000000 1.000000
vn 0.000000 0.000000 1.000000
vn 0.000000 0.000000 1.000000
vn 0.000000 0.000000 1.000000
vn 0.000000 0.000000 1.000000
vn 0.000000 0.000000 1.000000
vn 0.000000 0.000000 1.000000
vn 0.000000 0.000000 1.000000
vn 0.000000 0.000000 1.000000
vn 0.000000 0.000000 1.000000
vn 0.000000 0.000000 1.000000
vn 0.000000 0.000000 1.000000
vn 0.000000 0.000000 1.000000
vn 0.000000 0.000000 1.000000
vn 0.000000 0.000000 1.000000
vn 0.000000 0.000000 1.000000
vn 0.000000 0.000000 1.000000
vn 0.000000 0.000000 1.000000
vn 0.000000 0.000000 1.000000
vn 0.000000 0.000000 1.000000
vn 0.000000 0.000000 1.000000
vn 0.000000 0.000000 1.000000
vn 0.000000 0.000000 1.000000
vn 0.000000 0.000000 1.000000
vn 0.000000 0.000000 1.000000
vn 0.000000 0.000000 1.000000
s 1
g pCube3
usemtl surfaceShader1SG
f 9/15/1 10/16/2 11/17/3 12/18/4
s 2
f 3/3/5 4/4/6 27/35/7 89/99/8 57/67/9 60/70/10 41/51/11 76/86/12 44/54/13 73/83/14 33/43/15 84/94/16 52/62/17 65/75/18 36/46/19 81/91/20 49/59/21 68/78/22 29/39/23 88/98/24 56/66/25 61/71/26 40/50/27 77/87/28 45/55/29 72/82/30 32/42/31 85/95/32 53/63/33 64/74/34 37/47/35 80/90/36 48/58/37 69/79/38 28/38/39
s 3
f 13/19/40 14/20/41 15/21/42 16/22/43
s 4
f 7/7/44 8/8/45 2/10/46 1/9/47
s 5
f 2/2/48 8/11/49 6/12/50 26/34/51 27/36/52 4/4/53
s 6
f 7/13/54 1/1/55 3/3/56 28/37/57 25/31/58 5/14/59
s 4
f 1/1/47 2/2/46 10/16/60 9/15/61
s 5
f 2/2/48 4/4/53 11/17/62 10/16/63
s off
f 18/23/64 17/24/65 19/25/66 20/26/67
s 6
f 3/3/56 1/1/55 9/15/68 12/18/69
s off
f 21/27/70 22/28/71 23/29/72 24/30/73
s 5
f 6/6/50 8/8/49 15/21/74 14/20/75
s 4
f 8/8/45 7/7/44 16/22/76 15/21/77
s 6
f 7/7/54 5/5/59 13/19/78 16/22/79
s off
f 4/4/80 3/3/81 17/24/82 18/23/83
s 6
f 3/3/56 12/18/69 19/25/84 17/24/85
s 1
f 12/18/4 11/17/3 20/26/86 19/25/87
s 5
f 11/17/62 4/4/53 18/23/88 20/26/89
s off
f 5/5/90 6/6/91 22/28/92 21/27/93
s 5
f 6/6/50 14/20/75 23/29/94 22/28/95
s 3
f 14/20/41 13/19/40 24/30/96 23/29/97
s 6
f 13/19/78 5/5/59 21/27/98 24/30/99
s 2
f 25/32/100 70/80/101 47/57/102 79/89/103 38/48/104 63/73/105 54/64/106 86/96/107 31/41/108 71/81/109 46/56/110 78/88/111 39/49/112 62/72/113 55/65/114 87/97/115 30/40/116 67/77/117 50/60/118 82/92/119 35/45/120 66/76/121 51/61/122 83/93/123 34/44/124 74/84/125 43/53/126 75/85/127 42/52/128 59/69/129 58/68/130 90/100/131 26/33/132 6/6/133 5/5/134
f 25/32/100 28/38/39 69/79/38 70/80/101
f 30/40/116 29/39/23 68/78/22 67/77/117
f 34/44/124 33/43/15 73/83/14 74/84/125
f 31/41/108 32/42/31 72/82/30 71/81/109
f 39/49/112 40/50/27 61/71/26 62/72/113
f 42/52/128 41/51/11 60/70/10 59/69/129
f 35/45/120 36/46/19 65/75/18 66/76/121
f 38/48/104 37/47/35 64/74/34 63/73/105
f 54/64/106 53/63/33 85/95/32 86/96/107
f 51/61/122 52/62/17 84/94/16 83/93/123
f 58/68/130 57/67/9 89/99/8 90/100/131
f 55/65/114 56/66/25 88/98/24 87/97/115
f 46/56/110 45/55/29 77/87/28 78/88/111
f 43/53/126 44/54/13 76/86/12 75/85/127
f 50/60/118 49/59/21 81/91/20 82/92/119
f 47/57/102 48/58/37 80/90/36 79/89/103
f 79/89/103 80/90/36 37/47/35 38/48/104
f 82/92/119 81/91/20 36/46/19 35/45/120
f 75/85/127 76/86/12 41/51/11 42/52/128
f 78/88/111 77/87/28 40/50/27 39/49/112
f 87/97/115 88/98/24 29/39/23 30/40/116
f 90/100/131 89/99/8 27/35/7 26/33/132
f 83/93/123 84/94/16 33/43/15 34/44/124
f 86/96/107 85/95/32 32/42/31 31/41/108
f 63/73/105 64/74/34 53/63/33 54/64/106
f 66/76/121 65/75/18 52/62/17 51/61/122
f 59/69/129 60/70/10 57/67/9 58/68/130
f 62/72/113 61/71/26 56/66/25 55/65/114
f 71/81/109 72/82/30 45/55/29 46/56/110
f 74/84/125 73/83/14 44/54/13 43/53/126
f 67/77/117 68/78/22 49/59/21 50/60/118
f 70/80/101 69/79/38 48/58/37 47/57/102
