# This file uses centimeters as units for non-parametric coordinates.

mtllib Tyre Combined.mtl
g default
v 6.403220 -2.422518 1.961006
v 7.588988 -2.422518 1.469845
v 8.774756 -2.422518 1.961006
v 9.265918 -2.422518 3.146775
v 8.774756 -2.422518 4.332543
v 7.588988 -2.422518 4.823704
v 6.403220 -2.422518 4.332543
v 5.912058 -2.422518 3.146775
v 6.403220 -3.727612 1.961006
v 7.588988 -3.727612 1.469845
v 8.774756 -3.727612 1.961006
v 9.265918 -3.727612 3.146775
v 8.774756 -3.727612 4.332543
v 7.588988 -3.727612 4.823704
v 6.403220 -3.727612 4.332543
v 5.912058 -3.727612 3.146775
v 7.588988 -2.422518 3.146775
v 7.588988 -3.727612 3.146775
v 6.403220 3.728295 1.961006
v 7.588988 3.728295 1.469845
v 8.774756 3.728295 1.961006
v 9.265918 3.728295 3.146775
v 8.774756 3.728295 4.332543
v 7.588988 3.728295 4.823704
v 6.403220 3.728295 4.332543
v 5.912058 3.728295 3.146775
v 6.403220 2.423201 1.961006
v 7.588988 2.423201 1.469845
v 8.774756 2.423201 1.961006
v 9.265918 2.423201 3.146775
v 8.774756 2.423201 4.332543
v 7.588988 2.423201 4.823704
v 6.403220 2.423201 4.332543
v 5.912058 2.423201 3.146775
v 7.588988 3.728295 3.146775
v 7.588988 2.423201 3.146775
v -4.876298 -2.551460 1.352820
v -3.887513 -2.551460 1.064883
v -2.984734 -2.551460 1.560458
v -2.696797 -2.551460 2.549243
v -3.192371 -2.551460 3.452022
v -4.181157 -2.551460 3.739959
v -5.083936 -2.551460 3.244385
v -5.371873 -2.551460 2.255599
v -4.876298 -3.598670 1.352820
v -3.887513 -3.598670 1.064883
v -2.984734 -3.598670 1.560458
v -2.696797 -3.598670 2.549243
v -3.192371 -3.598670 3.452022
v -4.181157 -3.598670 3.739959
v -5.083936 -3.598670 3.244385
v -5.371873 -3.598670 2.255599
v -4.034335 -2.551460 2.402421
v -4.034335 -3.598670 2.402421
v -4.876298 3.612927 1.352820
v -3.887513 3.612927 1.064883
v -2.984734 3.612927 1.560458
v -2.696797 3.612927 2.549243
v -3.192371 3.612927 3.452022
v -4.181157 3.612927 3.739959
v -5.083936 3.612927 3.244385
v -5.371873 3.612927 2.255599
v -4.876298 2.565717 1.352820
v -3.887513 2.565717 1.064883
v -2.984734 2.565717 1.560458
v -2.696797 2.565717 2.549243
v -3.192371 2.565717 3.452022
v -4.181157 2.565717 3.739959
v -5.083936 2.565717 3.244385
v -5.371873 2.565717 2.255599
v -4.034335 3.612927 2.402421
v -4.034335 2.565717 2.402421
vt 0.905935 0.942977
vt 0.863651 0.942977
vt 0.863651 0.896438
vt 0.905935 0.896437
vt 0.821366 0.942977
vt 0.821366 0.896438
vt 0.779081 0.942976
vt 0.779082 0.896436
vt 0.736797 0.942975
vt 0.736798 0.896435
vt 0.694513 0.942975
vt 0.694513 0.896435
vt 0.652228 0.942975
vt 0.652228 0.896435
vt 0.990504 0.942977
vt 0.948220 0.942977
vt 0.948219 0.896437
vt 0.990504 0.896437
vt 0.501757 0.820000
vt 0.501757 0.875000
vt 0.441757 0.820000
vt 0.501757 0.765000
vt 0.441757 0.765000
vt 0.381757 0.765000
vt 0.381757 0.820000
vt 0.381757 0.875000
vt 0.441757 0.875000
vt 0.247511 0.875000
vt 0.247511 0.820000
vt 0.307511 0.820000
vt 0.247511 0.765000
vt 0.307511 0.765000
vt 0.367511 0.765000
vt 0.367511 0.820000
vt 0.367511 0.875000
vt 0.307511 0.875000
vt 0.820101 0.947108
vt 0.862386 0.947108
vt 0.862386 0.993648
vt 0.820101 0.993647
vt 0.904670 0.947108
vt 0.904670 0.993648
vt 0.946955 0.947108
vt 0.946954 0.993648
vt 0.989239 0.947109
vt 0.989239 0.993648
vt 0.650964 0.947103
vt 0.693248 0.947104
vt 0.693247 0.993644
vt 0.650963 0.993643
vt 0.735533 0.947105
vt 0.735531 0.993645
vt 0.777817 0.947106
vt 0.777816 0.993646
vt 0.257447 0.820000
vt 0.257447 0.875000
vt 0.197447 0.820000
vt 0.257447 0.765000
vt 0.197447 0.765000
vt 0.137447 0.765000
vt 0.137447 0.820000
vt 0.137447 0.875000
vt 0.197447 0.875000
vt 0.006757 0.875000
vt 0.006757 0.820000
vt 0.066757 0.820000
vt 0.006757 0.765000
vt 0.066757 0.765000
vt 0.126757 0.765000
vt 0.126757 0.820000
vt 0.126757 0.875000
vt 0.066757 0.875000
vt 0.853186 0.816352
vt 0.888448 0.816352
vt 0.888448 0.853695
vt 0.853190 0.853695
vt 0.920641 0.816352
vt 0.920641 0.853695
vt 0.650826 0.816388
vt 0.686086 0.816382
vt 0.686092 0.853726
vt 0.650832 0.853732
vt 0.718279 0.816377
vt 0.718285 0.853720
vt 0.753539 0.816371
vt 0.753545 0.853715
vt 0.785732 0.816366
vt 0.785739 0.853709
vt 0.820991 0.816358
vt 0.820999 0.853702
vt 0.191757 0.995000
vt 0.131757 0.995000
vt 0.191757 0.940000
vt 0.251757 0.995000
vt 0.251757 0.940000
vt 0.251757 0.885000
vt 0.191757 0.885000
vt 0.131757 0.885000
vt 0.131757 0.940000
vt 0.250356 0.873620
vt 0.310356 0.873620
vt 0.310356 0.928620
vt 0.370356 0.873620
vt 0.370356 0.928620
vt 0.370356 0.983620
vt 0.310356 0.983620
vt 0.250356 0.983620
vt 0.250356 0.928620
vt 0.785731 0.893706
vt 0.750471 0.893705
vt 0.750473 0.856362
vt 0.785733 0.856363
vt 0.718279 0.893704
vt 0.718279 0.856360
vt 0.683019 0.893704
vt 0.683019 0.856360
vt 0.650826 0.893704
vt 0.650826 0.856360
vt 0.920636 0.893723
vt 0.885376 0.893718
vt 0.885381 0.856375
vt 0.920641 0.856380
vt 0.853183 0.893714
vt 0.853188 0.856370
vt 0.817923 0.893710
vt 0.817927 0.856366
vt 0.066829 0.984331
vt 0.006685 0.984331
vt 0.066829 0.929331
vt 0.126829 0.984331
vt 0.126829 0.929331
vt 0.126829 0.874331
vt 0.066829 0.874331
vt 0.006685 0.874331
vt 0.006685 0.929331
vt 0.381757 0.885000
vt 0.441757 0.885000
vt 0.441757 0.940000
vt 0.501757 0.885000
vt 0.501757 0.940000
vt 0.501757 0.995000
vt 0.441757 0.995000
vt 0.381757 0.995000
vt 0.381757 0.940000
vn -0.382683 0.000000 -0.923880
vn -0.382683 0.000000 -0.923880
vn -0.382683 0.000000 -0.923880
vn -0.382683 0.000000 -0.923880
vn 0.382683 0.000000 -0.923880
vn 0.382683 0.000000 -0.923880
vn 0.382683 0.000000 -0.923880
vn 0.382683 0.000000 -0.923880
vn 0.923880 0.000000 -0.382683
vn 0.923880 0.000000 -0.382683
vn 0.923880 0.000000 -0.382683
vn 0.923880 0.000000 -0.382683
vn 0.923880 0.000000 0.382683
vn 0.923880 0.000000 0.382683
vn 0.923880 0.000000 0.382683
vn 0.923880 0.000000 0.382683
vn 0.382684 0.000000 0.923879
vn 0.382684 0.000000 0.923879
vn 0.382684 0.000000 0.923879
vn 0.382684 0.000000 0.923879
vn -0.382683 0.000000 0.923880
vn -0.382683 0.000000 0.923880
vn -0.382683 0.000000 0.923880
vn -0.382683 0.000000 0.923880
vn -0.923880 0.000000 0.382683
vn -0.923880 0.000000 0.382683
vn -0.923880 0.000000 0.382683
vn -0.923880 0.000000 0.382683
vn -0.923879 0.000000 -0.382684
vn -0.923879 0.000000 -0.382684
vn -0.923879 0.000000 -0.382684
vn -0.923879 0.000000 -0.382684
vn 0.000000 1.000000 0.000000
vn 0.000000 1.000000 0.000000
vn 0.000000 1.000000 -0.000000
vn 0.000000 1.000000 -0.000000
vn 0.000000 1.000000 -0.000000
vn 0.000000 1.000000 0.000000
vn 0.000000 1.000000 0.000000
vn 0.000000 1.000000 0.000000
vn 0.000000 1.000000 0.000000
vn 0.000000 -1.000000 0.000000
vn 0.000000 -1.000000 0.000000
vn 0.000000 -1.000000 0.000000
vn 0.000000 -1.000000 -0.000000
vn 0.000000 -1.000000 0.000000
vn 0.000000 -1.000000 0.000000
vn 0.000000 -1.000000 0.000000
vn 0.000000 -1.000000 0.000000
vn 0.000000 -1.000000 0.000000
vn -0.382683 0.000000 -0.923880
vn -0.382683 0.000000 -0.923880
vn -0.382683 0.000000 -0.923880
vn -0.382683 0.000000 -0.923880
vn 0.382683 0.000000 -0.923880
vn 0.382683 0.000000 -0.923880
vn 0.382683 0.000000 -0.923880
vn 0.382683 0.000000 -0.923880
vn 0.923880 0.000000 -0.382683
vn 0.923880 0.000000 -0.382683
vn 0.923880 0.000000 -0.382683
vn 0.923880 0.000000 -0.382683
vn 0.923880 0.000000 0.382683
vn 0.923880 0.000000 0.382683
vn 0.923880 0.000000 0.382683
vn 0.923880 0.000000 0.382683
vn 0.382683 0.000000 0.923880
vn 0.382683 0.000000 0.923880
vn 0.382683 0.000000 0.923880
vn 0.382683 0.000000 0.923880
vn -0.382683 0.000000 0.923880
vn -0.382683 0.000000 0.923880
vn -0.382683 0.000000 0.923880
vn -0.382683 0.000000 0.923880
vn -0.923880 0.000000 0.382683
vn -0.923880 0.000000 0.382683
vn -0.923880 0.000000 0.382683
vn -0.923880 0.000000 0.382683
vn -0.923879 0.000000 -0.382684
vn -0.923879 0.000000 -0.382684
vn -0.923879 0.000000 -0.382684
vn -0.923879 0.000000 -0.382684
vn 0.000000 1.000000 0.000000
vn 0.000000 1.000000 0.000000
vn 0.000000 1.000000 0.000000
vn 0.000000 1.000000 0.000000
vn 0.000000 1.000000 0.000000
vn 0.000000 1.000000 0.000000
vn 0.000000 1.000000 0.000000
vn 0.000000 1.000000 0.000000
vn 0.000000 1.000000 0.000000
vn 0.000000 -1.000000 0.000000
vn 0.000000 -1.000000 0.000000
vn 0.000000 -1.000000 -0.000000
vn 0.000000 -1.000000 0.000000
vn 0.000000 -1.000000 0.000000
vn 0.000000 -1.000000 0.000000
vn 0.000000 -1.000000 0.000000
vn 0.000000 -1.000000 -0.000000
vn 0.000000 -1.000000 -0.000000
vn -0.279590 0.000000 -0.960120
vn -0.279590 0.000000 -0.960120
vn -0.279590 0.000000 -0.960120
vn -0.279590 0.000000 -0.960120
vn 0.481207 0.000000 -0.876607
vn 0.481207 0.000000 -0.876607
vn 0.481207 0.000000 -0.876607
vn 0.481207 0.000000 -0.876607
vn 0.960120 0.000000 -0.279589
vn 0.960120 0.000000 -0.279589
vn 0.960120 0.000000 -0.279589
vn 0.960120 0.000000 -0.279589
vn 0.876607 0.000000 0.481207
vn 0.876607 0.000000 0.481207
vn 0.876607 0.000000 0.481207
vn 0.876607 0.000000 0.481207
vn 0.279589 0.000000 0.960120
vn 0.279589 0.000000 0.960120
vn 0.279589 0.000000 0.960120
vn 0.279589 0.000000 0.960120
vn -0.481207 0.000000 0.876607
vn -0.481207 0.000000 0.876607
vn -0.481207 0.000000 0.876607
vn -0.481207 0.000000 0.876607
vn -0.960120 0.000000 0.279590
vn -0.960120 0.000000 0.279590
vn -0.960120 0.000000 0.279590
vn -0.960120 0.000000 0.279590
vn -0.876607 0.000000 -0.481208
vn -0.876607 0.000000 -0.481208
vn -0.876607 0.000000 -0.481208
vn -0.876607 0.000000 -0.481208
vn 0.000000 1.000000 0.000000
vn 0.000000 1.000000 0.000000
vn 0.000000 1.000000 0.000000
vn 0.000000 1.000000 0.000000
vn 0.000000 1.000000 0.000000
vn 0.000000 1.000000 0.000000
vn 0.000000 1.000000 0.000000
vn 0.000000 1.000000 0.000000
vn 0.000000 1.000000 0.000000
vn 0.000000 -1.000000 0.000000
vn 0.000000 -1.000000 0.000000
vn 0.000000 -1.000000 -0.000000
vn 0.000000 -1.000000 0.000000
vn 0.000000 -1.000000 -0.000000
vn 0.000000 -1.000000 -0.000000
vn 0.000000 -1.000000 0.000000
vn 0.000000 -1.000000 -0.000000
vn 0.000000 -1.000000 -0.000000
vn -0.279590 0.000000 -0.960120
vn -0.279590 0.000000 -0.960120
vn -0.279590 0.000000 -0.960120
vn -0.279590 0.000000 -0.960120
vn 0.481207 0.000000 -0.876607
vn 0.481207 0.000000 -0.876607
vn 0.481207 0.000000 -0.876607
vn 0.481207 0.000000 -0.876607
vn 0.960120 0.000000 -0.279589
vn 0.960120 0.000000 -0.279589
vn 0.960120 0.000000 -0.279589
vn 0.960120 0.000000 -0.279589
vn 0.876607 0.000000 0.481207
vn 0.876607 0.000000 0.481207
vn 0.876607 0.000000 0.481207
vn 0.876607 0.000000 0.481207
vn 0.279589 0.000000 0.960120
vn 0.279589 0.000000 0.960120
vn 0.279589 0.000000 0.960120
vn 0.279589 0.000000 0.960120
vn -0.481207 0.000000 0.876607
vn -0.481207 0.000000 0.876607
vn -0.481207 0.000000 0.876607
vn -0.481207 0.000000 0.876607
vn -0.960120 0.000000 0.279590
vn -0.960120 0.000000 0.279590
vn -0.960120 0.000000 0.279590
vn -0.960120 0.000000 0.279590
vn -0.876607 0.000000 -0.481208
vn -0.876607 0.000000 -0.481208
vn -0.876607 0.000000 -0.481208
vn -0.876607 0.000000 -0.481208
vn 0.000000 1.000000 0.000000
vn 0.000000 1.000000 0.000000
vn 0.000000 1.000000 -0.000000
vn 0.000000 1.000000 0.000000
vn 0.000000 1.000000 0.000000
vn 0.000000 1.000000 0.000000
vn 0.000000 1.000000 0.000000
vn 0.000000 1.000000 -0.000000
vn 0.000000 1.000000 -0.000000
vn 0.000000 -1.000000 -0.000000
vn 0.000000 -1.000000 0.000000
vn 0.000000 -1.000000 -0.000000
vn 0.000000 -1.000000 -0.000000
vn 0.000000 -1.000000 0.000000
vn 0.000000 -1.000000 0.000000
vn 0.000000 -1.000000 0.000000
vn 0.000000 -1.000000 0.000000
vn 0.000000 -1.000000 -0.000000
s off
g polySurface14
usemtl surfaceShader1SG
f 1/1/1 2/2/2 10/3/3 9/4/4
f 2/2/5 3/5/6 11/6/7 10/3/8
f 3/5/9 4/7/10 12/8/11 11/6/12
f 4/7/13 5/9/14 13/10/15 12/8/16
f 5/9/17 6/11/18 14/12/19 13/10/20
f 6/11/21 7/13/22 15/14/23 14/12/24
f 7/15/25 8/16/26 16/17/27 15/18/28
f 8/16/29 1/1/30 9/4/31 16/17/32
s 1
f 2/19/33 1/20/34 17/21/35
f 3/22/36 2/19/33 17/21/35
f 4/23/37 3/22/36 17/21/35
f 5/24/38 4/23/37 17/21/35
f 6/25/39 5/24/38 17/21/35
f 7/26/40 6/25/39 17/21/35
f 8/27/41 7/26/40 17/21/35
f 1/20/34 8/27/41 17/21/35
s 2
f 9/28/42 10/29/43 18/30/44
f 10/29/43 11/31/45 18/30/44
f 11/31/45 12/32/46 18/30/44
f 12/32/46 13/33/47 18/30/44
f 13/33/47 14/34/48 18/30/44
f 14/34/48 15/35/49 18/30/44
f 15/35/49 16/36/50 18/30/44
f 16/36/50 9/28/42 18/30/44
s off
f 19/37/51 20/38/52 28/39/53 27/40/54
f 20/38/55 21/41/56 29/42/57 28/39/58
f 21/41/59 22/43/60 30/44/61 29/42/62
f 22/43/63 23/45/64 31/46/65 30/44/66
f 23/47/67 24/48/68 32/49/69 31/50/70
f 24/48/71 25/51/72 33/52/73 32/49/74
f 25/51/75 26/53/76 34/54/77 33/52/78
f 26/53/79 19/37/80 27/40/81 34/54/82
s 3
f 20/55/83 19/56/84 35/57/85
f 21/58/86 20/55/83 35/57/85
f 22/59/87 21/58/86 35/57/85
f 23/60/88 22/59/87 35/57/85
f 24/61/89 23/60/88 35/57/85
f 25/62/90 24/61/89 35/57/85
f 26/63/91 25/62/90 35/57/85
f 19/56/84 26/63/91 35/57/85
s 4
f 27/64/92 28/65/93 36/66/94
f 28/65/93 29/67/95 36/66/94
f 29/67/95 30/68/96 36/66/94
f 30/68/96 31/69/97 36/66/94
f 31/69/97 32/70/98 36/66/94
f 32/70/98 33/71/99 36/66/94
f 33/71/99 34/72/100 36/66/94
f 34/72/100 27/64/92 36/66/94
s off
f 37/73/101 38/74/102 46/75/103 45/76/104
f 38/74/105 39/77/106 47/78/107 46/75/108
f 39/79/109 40/80/110 48/81/111 47/82/112
f 40/80/113 41/83/114 49/84/115 48/81/116
f 41/83/117 42/85/118 50/86/119 49/84/120
f 42/85/121 43/87/122 51/88/123 50/86/124
f 43/87/125 44/89/126 52/90/127 51/88/128
f 44/89/129 37/73/130 45/76/131 52/90/132
s 5
f 38/91/133 37/92/134 53/93/135
f 39/94/136 38/91/133 53/93/135
f 40/95/137 39/94/136 53/93/135
f 41/96/138 40/95/137 53/93/135
f 42/97/139 41/96/138 53/93/135
f 43/98/140 42/97/139 53/93/135
f 44/99/141 43/98/140 53/93/135
f 37/92/134 44/99/141 53/93/135
s 6
f 45/100/142 46/101/143 54/102/144
f 46/101/143 47/103/145 54/102/144
f 47/103/145 48/104/146 54/102/144
f 48/104/146 49/105/147 54/102/144
f 49/105/147 50/106/148 54/102/144
f 50/106/148 51/107/149 54/102/144
f 51/107/149 52/108/150 54/102/144
f 52/108/150 45/100/142 54/102/144
s off
f 55/109/151 56/110/152 64/111/153 63/112/154
f 56/110/155 57/113/156 65/114/157 64/111/158
f 57/113/159 58/115/160 66/116/161 65/114/162
f 58/115/163 59/117/164 67/118/165 66/116/166
f 59/119/167 60/120/168 68/121/169 67/122/170
f 60/120/171 61/123/172 69/124/173 68/121/174
f 61/123/175 62/125/176 70/126/177 69/124/178
f 62/125/179 55/109/180 63/112/181 70/126/182
s 7
f 56/127/183 55/128/184 71/129/185
f 57/130/186 56/127/183 71/129/185
f 58/131/187 57/130/186 71/129/185
f 59/132/188 58/131/187 71/129/185
f 60/133/189 59/132/188 71/129/185
f 61/134/190 60/133/189 71/129/185
f 62/135/191 61/134/190 71/129/185
f 55/128/184 62/135/191 71/129/185
s 8
f 63/136/192 64/137/193 72/138/194
f 64/137/193 65/139/195 72/138/194
f 65/139/195 66/140/196 72/138/194
f 66/140/196 67/141/197 72/138/194
f 67/141/197 68/142/198 72/138/194
f 68/142/198 69/143/199 72/138/194
f 69/143/199 70/144/200 72/138/194
f 70/144/200 63/136/192 72/138/194
